<mxfile host="app.diagrams.net" agent="Mozilla/5.0 (Windows NT 10.0; Win64; x64) AppleWebKit/537.36 (KHTML, like Gecko) Chrome/131.0.0.0 Safari/537.36" version="25.0.3">
  <diagram name="Page-1" id="CGlP-f6B_9gmlbb8LPZK">
    <mxGraphModel dx="2954" dy="1274" grid="1" gridSize="10" guides="1" tooltips="1" connect="1" arrows="1" fold="1" page="1" pageScale="1" pageWidth="827" pageHeight="1169" math="0" shadow="0">
      <root>
        <mxCell id="0" />
        <mxCell id="1" parent="0" />
        <mxCell id="irelFA9TDMdwVbNkFKTp-3" value="CR" style="swimlane;startSize=0;" vertex="1" parent="1">
          <mxGeometry x="190" y="90" width="470" height="590" as="geometry" />
        </mxCell>
        <mxCell id="irelFA9TDMdwVbNkFKTp-6" value="GESTION TEAM" style="ellipse;whiteSpace=wrap;html=1;" vertex="1" parent="irelFA9TDMdwVbNkFKTp-3">
          <mxGeometry x="72.32" y="40" width="197" height="50" as="geometry" />
        </mxCell>
        <mxCell id="irelFA9TDMdwVbNkFKTp-12" value="CRUD in team" style="ellipse;whiteSpace=wrap;html=1;" vertex="1" parent="irelFA9TDMdwVbNkFKTp-3">
          <mxGeometry x="310" y="142.5" width="140" height="45" as="geometry" />
        </mxCell>
        <mxCell id="irelFA9TDMdwVbNkFKTp-18" value="" style="endArrow=none;dashed=1;html=1;dashPattern=1 3;strokeWidth=2;rounded=0;entryX=0.982;entryY=0.641;entryDx=0;entryDy=0;entryPerimeter=0;" edge="1" parent="irelFA9TDMdwVbNkFKTp-3" source="irelFA9TDMdwVbNkFKTp-20" target="irelFA9TDMdwVbNkFKTp-6">
          <mxGeometry width="50" height="50" relative="1" as="geometry">
            <mxPoint x="370" y="130" as="sourcePoint" />
            <mxPoint x="107.32" y="85" as="targetPoint" />
          </mxGeometry>
        </mxCell>
        <mxCell id="irelFA9TDMdwVbNkFKTp-48" value="EXTEND" style="edgeLabel;html=1;align=center;verticalAlign=middle;resizable=0;points=[];" vertex="1" connectable="0" parent="irelFA9TDMdwVbNkFKTp-18">
          <mxGeometry x="0.022" y="-1" relative="1" as="geometry">
            <mxPoint x="-1" as="offset" />
          </mxGeometry>
        </mxCell>
        <mxCell id="irelFA9TDMdwVbNkFKTp-26" value="" style="endArrow=none;dashed=1;html=1;dashPattern=1 3;strokeWidth=2;rounded=0;entryX=0.982;entryY=0.641;entryDx=0;entryDy=0;entryPerimeter=0;exitX=0;exitY=0.5;exitDx=0;exitDy=0;" edge="1" parent="irelFA9TDMdwVbNkFKTp-3" source="irelFA9TDMdwVbNkFKTp-20" target="irelFA9TDMdwVbNkFKTp-20">
          <mxGeometry width="50" height="50" relative="1" as="geometry">
            <mxPoint x="560" y="220" as="sourcePoint" />
            <mxPoint x="456" y="162" as="targetPoint" />
          </mxGeometry>
        </mxCell>
        <mxCell id="irelFA9TDMdwVbNkFKTp-20" value="" style="triangle;whiteSpace=wrap;html=1;rotation=30;" vertex="1" parent="irelFA9TDMdwVbNkFKTp-3">
          <mxGeometry x="370" y="132.5" width="12.32" height="10" as="geometry" />
        </mxCell>
        <mxCell id="irelFA9TDMdwVbNkFKTp-27" value="GESTION&amp;nbsp;" style="ellipse;whiteSpace=wrap;html=1;" vertex="1" parent="irelFA9TDMdwVbNkFKTp-3">
          <mxGeometry x="123" y="240" width="197" height="50" as="geometry" />
        </mxCell>
        <mxCell id="irelFA9TDMdwVbNkFKTp-28" value="gestion player" style="ellipse;whiteSpace=wrap;html=1;" vertex="1" parent="irelFA9TDMdwVbNkFKTp-3">
          <mxGeometry x="320.00000000000006" y="340" width="140" height="45" as="geometry" />
        </mxCell>
        <mxCell id="irelFA9TDMdwVbNkFKTp-29" value="" style="endArrow=none;dashed=1;html=1;dashPattern=1 3;strokeWidth=2;rounded=0;entryX=0.877;entryY=0.889;entryDx=0;entryDy=0;entryPerimeter=0;" edge="1" source="irelFA9TDMdwVbNkFKTp-31" target="irelFA9TDMdwVbNkFKTp-27" parent="irelFA9TDMdwVbNkFKTp-3">
          <mxGeometry width="50" height="50" relative="1" as="geometry">
            <mxPoint x="333.84000000000003" y="332.5" as="sourcePoint" />
            <mxPoint x="71.16" y="287.5" as="targetPoint" />
          </mxGeometry>
        </mxCell>
        <mxCell id="irelFA9TDMdwVbNkFKTp-45" value="EXTEND" style="edgeLabel;html=1;align=center;verticalAlign=middle;resizable=0;points=[];" vertex="1" connectable="0" parent="irelFA9TDMdwVbNkFKTp-29">
          <mxGeometry x="-0.1733" y="-3" relative="1" as="geometry">
            <mxPoint x="-1" as="offset" />
          </mxGeometry>
        </mxCell>
        <mxCell id="irelFA9TDMdwVbNkFKTp-30" value="" style="endArrow=none;dashed=1;html=1;dashPattern=1 3;strokeWidth=2;rounded=0;entryX=0.982;entryY=0.641;entryDx=0;entryDy=0;entryPerimeter=0;exitX=0;exitY=0.5;exitDx=0;exitDy=0;" edge="1" source="irelFA9TDMdwVbNkFKTp-31" target="irelFA9TDMdwVbNkFKTp-31" parent="irelFA9TDMdwVbNkFKTp-3">
          <mxGeometry width="50" height="50" relative="1" as="geometry">
            <mxPoint x="570" y="417.5" as="sourcePoint" />
            <mxPoint x="466.00000000000006" y="359.5" as="targetPoint" />
          </mxGeometry>
        </mxCell>
        <mxCell id="irelFA9TDMdwVbNkFKTp-31" value="" style="triangle;whiteSpace=wrap;html=1;rotation=30;" vertex="1" parent="irelFA9TDMdwVbNkFKTp-3">
          <mxGeometry x="380.00000000000006" y="330" width="12.32" height="10" as="geometry" />
        </mxCell>
        <mxCell id="irelFA9TDMdwVbNkFKTp-38" value="gestion user" style="ellipse;whiteSpace=wrap;html=1;" vertex="1" parent="irelFA9TDMdwVbNkFKTp-3">
          <mxGeometry x="10.000000000000057" y="341.67" width="140" height="45" as="geometry" />
        </mxCell>
        <mxCell id="irelFA9TDMdwVbNkFKTp-39" value="" style="endArrow=none;dashed=1;html=1;dashPattern=1 3;strokeWidth=2;rounded=0;entryX=0.982;entryY=0.641;entryDx=0;entryDy=0;entryPerimeter=0;exitX=0;exitY=0.5;exitDx=0;exitDy=0;" edge="1" source="irelFA9TDMdwVbNkFKTp-40" target="irelFA9TDMdwVbNkFKTp-40" parent="irelFA9TDMdwVbNkFKTp-3">
          <mxGeometry width="50" height="50" relative="1" as="geometry">
            <mxPoint x="404" y="417.5" as="sourcePoint" />
            <mxPoint x="300.00000000000006" y="359.5" as="targetPoint" />
          </mxGeometry>
        </mxCell>
        <mxCell id="irelFA9TDMdwVbNkFKTp-40" value="" style="triangle;whiteSpace=wrap;html=1;rotation=-220;" vertex="1" parent="irelFA9TDMdwVbNkFKTp-3">
          <mxGeometry x="90" y="331.67" width="10" height="10" as="geometry" />
        </mxCell>
        <mxCell id="irelFA9TDMdwVbNkFKTp-42" value="" style="endArrow=none;dashed=1;html=1;rounded=0;exitX=0;exitY=1;exitDx=0;exitDy=0;entryX=0;entryY=0.5;entryDx=0;entryDy=0;" edge="1" parent="irelFA9TDMdwVbNkFKTp-3" source="irelFA9TDMdwVbNkFKTp-27" target="irelFA9TDMdwVbNkFKTp-40">
          <mxGeometry width="50" height="50" relative="1" as="geometry">
            <mxPoint x="640" y="280" as="sourcePoint" />
            <mxPoint x="210" y="330" as="targetPoint" />
          </mxGeometry>
        </mxCell>
        <mxCell id="irelFA9TDMdwVbNkFKTp-46" value="EXTEND" style="edgeLabel;html=1;align=center;verticalAlign=middle;resizable=0;points=[];" vertex="1" connectable="0" parent="irelFA9TDMdwVbNkFKTp-42">
          <mxGeometry x="-0.1193" relative="1" as="geometry">
            <mxPoint as="offset" />
          </mxGeometry>
        </mxCell>
        <mxCell id="irelFA9TDMdwVbNkFKTp-50" value="CRUD" style="ellipse;whiteSpace=wrap;html=1;" vertex="1" parent="irelFA9TDMdwVbNkFKTp-3">
          <mxGeometry x="330" y="440" width="120" height="40" as="geometry" />
        </mxCell>
        <mxCell id="irelFA9TDMdwVbNkFKTp-52" value="CRUD" style="ellipse;whiteSpace=wrap;html=1;" vertex="1" parent="irelFA9TDMdwVbNkFKTp-3">
          <mxGeometry x="20" y="440" width="120" height="40" as="geometry" />
        </mxCell>
        <mxCell id="irelFA9TDMdwVbNkFKTp-53" value="" style="endArrow=none;dashed=1;html=1;dashPattern=1 3;strokeWidth=2;rounded=0;entryX=0.5;entryY=1;entryDx=0;entryDy=0;" edge="1" parent="irelFA9TDMdwVbNkFKTp-3" target="irelFA9TDMdwVbNkFKTp-38">
          <mxGeometry width="50" height="50" relative="1" as="geometry">
            <mxPoint x="80" y="428" as="sourcePoint" />
            <mxPoint x="90" y="390" as="targetPoint" />
          </mxGeometry>
        </mxCell>
        <mxCell id="irelFA9TDMdwVbNkFKTp-62" value="EXTEND" style="edgeLabel;html=1;align=center;verticalAlign=middle;resizable=0;points=[];" vertex="1" connectable="0" parent="irelFA9TDMdwVbNkFKTp-53">
          <mxGeometry x="0.0749" relative="1" as="geometry">
            <mxPoint as="offset" />
          </mxGeometry>
        </mxCell>
        <mxCell id="irelFA9TDMdwVbNkFKTp-56" value="" style="endArrow=none;dashed=1;html=1;dashPattern=1 3;strokeWidth=2;rounded=0;entryX=0.5;entryY=1;entryDx=0;entryDy=0;" edge="1" parent="irelFA9TDMdwVbNkFKTp-3" source="irelFA9TDMdwVbNkFKTp-57" target="irelFA9TDMdwVbNkFKTp-28">
          <mxGeometry width="50" height="50" relative="1" as="geometry">
            <mxPoint x="390" y="430" as="sourcePoint" />
            <mxPoint x="350" y="330" as="targetPoint" />
          </mxGeometry>
        </mxCell>
        <mxCell id="irelFA9TDMdwVbNkFKTp-63" value="EXTEND" style="edgeLabel;html=1;align=center;verticalAlign=middle;resizable=0;points=[];" vertex="1" connectable="0" parent="irelFA9TDMdwVbNkFKTp-56">
          <mxGeometry x="-0.1518" relative="1" as="geometry">
            <mxPoint as="offset" />
          </mxGeometry>
        </mxCell>
        <mxCell id="irelFA9TDMdwVbNkFKTp-57" value="" style="triangle;whiteSpace=wrap;html=1;rotation=91;" vertex="1" parent="irelFA9TDMdwVbNkFKTp-3">
          <mxGeometry x="385" y="430" width="10" height="10" as="geometry" />
        </mxCell>
        <mxCell id="irelFA9TDMdwVbNkFKTp-60" value="" style="endArrow=none;dashed=1;html=1;dashPattern=1 3;strokeWidth=2;rounded=0;entryX=0.5;entryY=1;entryDx=0;entryDy=0;exitX=0.5;exitY=0;exitDx=0;exitDy=0;" edge="1" parent="irelFA9TDMdwVbNkFKTp-3" source="irelFA9TDMdwVbNkFKTp-52" target="irelFA9TDMdwVbNkFKTp-59">
          <mxGeometry width="50" height="50" relative="1" as="geometry">
            <mxPoint x="270" y="530" as="sourcePoint" />
            <mxPoint x="270" y="477" as="targetPoint" />
          </mxGeometry>
        </mxCell>
        <mxCell id="irelFA9TDMdwVbNkFKTp-59" value="" style="triangle;whiteSpace=wrap;html=1;rotation=91;" vertex="1" parent="irelFA9TDMdwVbNkFKTp-3">
          <mxGeometry x="75" y="430" width="10" height="10" as="geometry" />
        </mxCell>
        <mxCell id="irelFA9TDMdwVbNkFKTp-65" value="FUT GESTION PLAYERS" style="rounded=0;whiteSpace=wrap;html=1;" vertex="1" parent="irelFA9TDMdwVbNkFKTp-3">
          <mxGeometry width="160" height="20" as="geometry" />
        </mxCell>
        <mxCell id="irelFA9TDMdwVbNkFKTp-4" value="user" style="shape=umlActor;verticalLabelPosition=bottom;verticalAlign=top;html=1;outlineConnect=0;" vertex="1" parent="1">
          <mxGeometry x="120" y="140" width="20" height="40" as="geometry" />
        </mxCell>
        <mxCell id="irelFA9TDMdwVbNkFKTp-5" value="admin" style="shape=umlActor;verticalLabelPosition=bottom;verticalAlign=top;html=1;outlineConnect=0;" vertex="1" parent="1">
          <mxGeometry x="117.5" y="330" width="25" height="50" as="geometry" />
        </mxCell>
        <mxCell id="irelFA9TDMdwVbNkFKTp-7" value="" style="endArrow=classic;html=1;rounded=0;" edge="1" parent="1">
          <mxGeometry width="50" height="50" relative="1" as="geometry">
            <mxPoint x="130" y="320" as="sourcePoint" />
            <mxPoint x="130" y="210" as="targetPoint" />
          </mxGeometry>
        </mxCell>
        <mxCell id="irelFA9TDMdwVbNkFKTp-49" value="" style="endArrow=none;html=1;rounded=0;entryX=0;entryY=0.5;entryDx=0;entryDy=0;" edge="1" parent="1" target="irelFA9TDMdwVbNkFKTp-6">
          <mxGeometry width="50" height="50" relative="1" as="geometry">
            <mxPoint x="160" y="155" as="sourcePoint" />
            <mxPoint x="230" y="140" as="targetPoint" />
          </mxGeometry>
        </mxCell>
        <mxCell id="irelFA9TDMdwVbNkFKTp-64" value="" style="endArrow=none;html=1;rounded=0;entryX=0;entryY=0.5;entryDx=0;entryDy=0;" edge="1" parent="1" source="irelFA9TDMdwVbNkFKTp-5" target="irelFA9TDMdwVbNkFKTp-27">
          <mxGeometry width="50" height="50" relative="1" as="geometry">
            <mxPoint x="240" y="370" as="sourcePoint" />
            <mxPoint x="290" y="320" as="targetPoint" />
          </mxGeometry>
        </mxCell>
      </root>
    </mxGraphModel>
  </diagram>
</mxfile>
